<svg width="30" height="30" viewBox="0 0 30 30" fill="none" xmlns="http://www.w3.org/2000/svg">
<path fill-rule="evenodd" clip-rule="evenodd" d="M7.69259 9.12645C9.41096 6.9913 12.0459 5.625 15 5.625C15.4563 5.625 15.9047 5.65759 16.3435 5.72055L17.1407 7.3149L14.0895 10.3661L10.8082 10.8349L9.20011 12.443L7.69259 9.12645ZM6.50137 11.0369C5.93907 12.2407 5.625 13.5836 5.625 15C5.625 19.6181 8.96416 23.4564 13.3598 24.232L13.8736 23.3994L11.0184 19.4338L12.9676 16.907L12.0408 16.4436L8.67534 17.0045L8.01708 14.3715L6.50137 11.0369ZM9.94449 14.3503L10.0745 14.8705L12.334 14.4939L14.2157 15.4348L17.603 14.9643L23.693 18.5169C24.1329 17.4309 24.375 16.2437 24.375 15C24.375 11.1716 22.0802 7.8792 18.7913 6.4232L19.4221 7.68512L14.9734 12.1339L11.6921 12.6026L9.94449 14.3503ZM22.8174 20.1768C21.2218 22.5815 18.5461 24.2075 15.4824 24.3628L16.1264 23.3194L13.3566 19.4725L15.1066 17.204L17.2185 16.9107L22.8174 20.1768ZM15 3.75C8.7868 3.75 3.75 8.7868 3.75 15C3.75 21.2132 8.7868 26.25 15 26.25C21.2132 26.25 26.25 21.2132 26.25 15C26.25 8.7868 21.2132 3.75 15 3.75Z" fill="#344E41"/>
</svg>
