<svg width="29" height="29" viewBox="0 0 29 29" fill="none" xmlns="http://www.w3.org/2000/svg">
<g clip-path="url(#clip0_4_551)">
<path d="M15.7083 13.2312V6.34373C16.8244 6.5708 17.8893 7.00084 18.85 7.61248C18.9996 7.71155 19.1677 7.77931 19.3441 7.81169C19.5206 7.84407 19.7018 7.84039 19.8768 7.80087C20.0518 7.76136 20.2169 7.68682 20.3624 7.58176C20.5078 7.4767 20.6304 7.34329 20.7229 7.18956C20.8485 7.07065 20.9439 6.92351 21.0012 6.76035C21.0585 6.59719 21.076 6.42272 21.0524 6.25141C21.0288 6.08011 20.9646 5.9169 20.8653 5.77535C20.766 5.63379 20.6343 5.51797 20.4813 5.43748C19.0553 4.48638 17.415 3.90503 15.7083 3.74581V2.41665C15.7083 2.09618 15.581 1.78883 15.3544 1.56223C15.1278 1.33562 14.8205 1.20831 14.5 1.20831C14.1795 1.20831 13.8722 1.33562 13.6456 1.56223C13.419 1.78883 13.2917 2.09618 13.2917 2.41665V3.62498C9.48543 3.92706 6.76668 6.28331 6.76668 9.4854C6.76668 13.1104 9.3646 14.5604 13.2917 15.5271V22.7166C11.6925 22.4556 10.1797 21.8131 8.88126 20.8437C8.75148 20.7286 8.59842 20.6428 8.4325 20.5921C8.26658 20.5414 8.0917 20.527 7.91973 20.55C7.74776 20.5729 7.58275 20.6326 7.43591 20.725C7.28907 20.8174 7.16385 20.9403 7.06876 21.0854C6.4646 21.8708 6.52501 22.475 7.12918 22.8979C8.92186 24.2454 11.0573 25.0619 13.2917 25.2541V26.5833C13.2917 26.9038 13.419 27.2111 13.6456 27.4377C13.8722 27.6643 14.1795 27.7916 14.5 27.7916C14.8205 27.7916 15.1278 27.6643 15.3544 27.4377C15.581 27.2111 15.7083 26.9038 15.7083 26.5833V25.3146C19.6354 25.0125 22.3542 22.6562 22.3542 19.2729C22.3542 16.1312 20.3604 14.3187 15.7083 13.2312ZM9.66668 9.36456C9.66668 7.6729 11.1167 6.46456 13.2917 6.28331V12.6875C10.2708 11.8416 9.66668 10.8146 9.66668 9.36456ZM19.4542 19.5146C19.4542 21.2666 17.9438 22.5354 15.7083 22.7771V16.1312C18.7896 16.9771 19.4542 18.0041 19.4542 19.4541V19.5146Z" fill="#344E41"/>
</g>
<defs>
<clipPath id="clip0_4_551">
<rect width="29" height="29" fill="white"/>
</clipPath>
</defs>
</svg>
