<svg viewBox="0 0 469 355" fill="none" xmlns="http://www.w3.org/2000/svg">
<g clip-path="url(#clip0_3_215)">
<path d="M379.555 225.885C379.975 225.926 380.396 225.83 380.762 225.61C381.127 225.39 381.42 225.056 381.601 224.654C381.781 224.252 381.84 223.802 381.77 223.363C381.699 222.925 381.503 222.52 381.208 222.203C381.165 221.983 381.135 221.825 381.093 221.606C381.114 221.559 381.134 221.513 381.155 221.467C381.625 220.432 382.374 219.566 383.308 218.979C384.242 218.392 385.319 218.11 386.405 218.168C387.49 218.225 388.536 218.62 389.409 219.303C390.283 219.986 390.946 220.927 391.315 222.006C392.79 226.316 394.72 230.654 395.044 235.15C395.186 237.137 395.001 239.135 394.497 241.055C398.797 232.254 401.255 222.579 401.704 212.687C401.814 210.205 401.793 207.718 401.64 205.238C401.513 203.204 401.302 201.182 401.006 199.169C399.391 188.248 395.346 177.888 389.203 168.939C386.126 166.965 383.696 164.042 382.241 160.564C381.713 159.313 381.36 157.989 381.192 156.631C381.545 156.698 381.906 156.747 382.261 156.789C382.372 156.8 382.488 156.812 382.599 156.824L382.641 156.828C383.031 156.866 383.424 156.784 383.771 156.591C384.119 156.399 384.406 156.104 384.599 155.744C384.791 155.383 384.881 154.971 384.857 154.557C384.833 154.144 384.697 153.747 384.464 153.413C384.319 153.206 384.174 152.998 384.029 152.791C383.809 152.471 383.583 152.157 383.363 151.838C383.337 151.807 383.313 151.775 383.291 151.741C383.038 151.377 382.785 151.018 382.532 150.653C383.057 149.874 383.746 149.233 384.545 148.781C387.31 147.249 390.972 148.584 392.803 151.251C394.64 153.918 394.849 157.544 394.03 160.723C393.243 163.424 392.027 165.964 390.434 168.233C390.571 168.438 390.714 168.637 390.852 168.841C393.36 172.596 395.514 176.601 397.283 180.8C397.011 176.18 397.782 171.559 399.532 167.315C401.29 163.367 404.401 160.121 407.163 156.769C410.48 152.742 416.824 154.883 417.143 160.21C417.146 160.261 417.149 160.313 417.151 160.364C416.754 160.576 416.364 160.803 415.981 161.043C415.501 161.349 415.119 161.802 414.886 162.341C414.653 162.88 414.579 163.481 414.675 164.065C414.771 164.649 415.031 165.189 415.422 165.614C415.814 166.039 416.317 166.329 416.867 166.446L416.924 166.459C416.721 167.926 416.412 169.376 416.001 170.795C414.817 174.753 412.871 178.41 410.285 181.537C407.7 184.664 404.531 187.193 400.976 188.965C400.743 189.077 400.516 189.19 400.283 189.296C401.983 195.254 402.943 201.421 403.137 207.641C403.241 211.31 403.063 214.982 402.606 218.621L402.63 218.492C403.556 214.466 405.77 210.902 408.896 208.4C413.538 204.741 419.917 203.623 424.877 200.743C425.405 200.421 426.009 200.264 426.618 200.293C427.228 200.321 427.816 200.533 428.315 200.903C428.814 201.273 429.203 201.787 429.434 202.382C429.666 202.978 429.732 203.631 429.624 204.265C429.615 204.31 429.607 204.355 429.598 204.4C428.866 204.674 428.15 204.996 427.455 205.364C427.058 205.575 426.668 205.802 426.285 206.043C425.804 206.349 425.422 206.801 425.189 207.34C424.956 207.879 424.883 208.48 424.979 209.064C425.074 209.648 425.335 210.188 425.726 210.613C426.117 211.038 426.621 211.328 427.171 211.446L427.228 211.458C427.268 211.466 427.303 211.474 427.343 211.482C425.978 214.52 424.129 217.286 421.875 219.661C419.094 222.532 415.786 224.774 412.156 226.248C408.525 227.722 404.647 228.397 400.761 228.232L400.755 228.231C399.487 233.02 397.751 237.657 395.576 242.066L379.286 241.265C379.236 241.071 379.193 240.871 379.148 240.678C380.652 240.852 382.17 240.831 383.668 240.616C382.529 238.99 381.39 237.352 380.25 235.726C380.225 235.696 380.201 235.664 380.178 235.63C379.601 234.798 379.017 233.972 378.439 233.141L378.439 233.14C378.515 230.681 378.89 228.243 379.555 225.885L379.555 225.885Z" fill="#F1F1F1"/>
<path d="M51.3466 77.1216C50.9305 77.1899 50.5047 77.1215 50.1266 76.9257C49.7486 76.7298 49.4367 76.416 49.2332 76.0266C49.0297 75.6373 48.9445 75.1913 48.989 74.7491C49.0335 74.3069 49.2057 73.8899 49.4822 73.5544C49.5114 73.3324 49.5323 73.173 49.5616 72.951C49.5383 72.9061 49.5149 72.8612 49.4915 72.8164C48.962 71.8139 48.1638 70.9991 47.1972 70.4741C46.2306 69.9492 45.1387 69.7376 44.0587 69.866C42.9786 69.9944 41.9585 70.4569 41.1266 71.1956C40.2947 71.9343 39.6879 72.9161 39.3827 74.0178C38.1619 78.4151 36.4901 82.8715 36.4298 87.3795C36.4039 89.3721 36.7055 91.3543 37.3212 93.238C32.5146 84.7342 29.4955 75.2384 28.4686 65.3943C28.2133 62.9238 28.089 60.4401 28.0963 57.9549C28.104 55.9174 28.1964 53.8846 28.3736 51.8566C29.3471 40.8514 32.7784 30.2471 38.3858 20.9144C41.3413 18.7429 43.5955 15.6667 44.8447 12.1004C45.2982 10.8179 45.5735 9.47287 45.6622 8.10707C45.3128 8.19688 44.9557 8.26894 44.6038 8.33418C44.494 8.35297 44.3785 8.37248 44.2687 8.39132L44.2272 8.39808C43.8396 8.46128 43.4429 8.40481 43.085 8.23546C42.727 8.0661 42.423 7.79109 42.2096 7.44351C41.9962 7.09594 41.8825 6.69063 41.8822 6.27638C41.8818 5.86213 41.9948 5.45661 42.2076 5.10862C42.3402 4.89213 42.4728 4.67573 42.6056 4.45942C42.8064 4.12587 43.0137 3.7978 43.2145 3.4643C43.2383 3.43207 43.2604 3.39842 43.2805 3.36353C43.5118 2.98302 43.7437 2.60869 43.975 2.22818C43.4047 1.48447 42.6795 0.889931 41.8559 0.490909C39.0066 -0.858269 35.4293 0.713784 33.758 3.49504C32.0808 6.27692 32.0845 9.90898 33.0878 13.0287C34.0308 15.6731 35.3931 18.1287 37.1163 20.2902C36.9912 20.5033 36.8597 20.7109 36.7347 20.924C34.4507 24.8352 32.5351 28.9735 31.0154 33.2794C31.0162 28.651 29.9765 24.0886 27.9819 19.9674C25.9966 16.1411 22.7013 13.1051 19.7486 9.93929C16.2021 6.1367 9.99522 8.68706 9.98908 14.0246C9.98903 14.0763 9.98909 14.1279 9.98928 14.1795C10.3985 14.365 10.8011 14.5655 11.1969 14.781C11.6945 15.0551 12.1022 15.4815 12.3664 16.0044C12.6307 16.5274 12.7392 17.1224 12.6777 17.7116C12.6163 18.3007 12.3878 18.8566 12.0221 19.3062C11.6565 19.7559 11.1707 20.0784 10.6286 20.2316L10.573 20.2472C10.8616 21.6991 11.2541 23.1257 11.7474 24.5147C13.1612 28.3882 15.3174 31.9114 18.0809 34.8635C20.8443 37.8156 24.1554 40.133 27.8066 41.6703C28.0459 41.7669 28.2793 41.8643 28.518 41.9549C27.1695 48.013 26.5727 54.2306 26.7424 60.4513C26.8537 64.1201 27.2457 67.7733 27.9145 71.3754L27.8838 71.2485C26.7237 67.2909 24.3059 63.8775 21.0387 61.5846C16.1921 58.2358 9.75992 57.5364 4.64055 54.9852C4.09482 54.6979 3.48268 54.5814 2.87632 54.6495C2.26997 54.7175 1.6947 54.9673 1.21835 55.3694C0.742007 55.7714 0.384458 56.309 0.187878 56.9186C-0.00870102 57.5282 -0.0361146 58.1845 0.108874 58.81C0.119957 58.8544 0.131155 58.8988 0.142462 58.9432C0.88967 59.1688 1.62284 59.4433 2.33772 59.7652C2.74696 59.9507 3.1495 60.1512 3.54535 60.3667C4.04298 60.6407 4.45062 61.0672 4.71486 61.5901C4.9791 62.113 5.0876 62.7081 5.02617 63.2972C4.96474 63.8864 4.73623 64.4422 4.37057 64.8919C4.00492 65.3416 3.51918 65.6641 2.977 65.8173L2.92144 65.8329C2.88141 65.8437 2.84716 65.8539 2.8072 65.8647C4.34725 68.8072 6.35539 71.4478 8.74365 73.6708C11.6876 76.3556 15.1198 78.377 18.8298 79.6111C22.5398 80.8452 26.4493 81.266 30.3187 80.8477L30.3246 80.8471C31.8703 85.5438 33.8741 90.0581 36.3035 94.3173L52.5147 92.4551C52.5532 92.2581 52.5853 92.0557 52.618 91.8595C51.1277 92.1315 49.6115 92.2098 48.1032 92.0926C49.1455 90.3957 50.1864 88.6865 51.2287 86.9896C51.2525 86.9574 51.2746 86.9238 51.2947 86.8889C51.8227 86.0211 52.3571 85.1587 52.885 84.2908C52.6657 81.8417 52.1484 79.4313 51.3466 77.1216Z" fill="#F1F1F1"/>
<path d="M275.317 70.7767C276.12 71.0099 276.864 71.426 277.498 71.9958C278.131 72.5656 278.639 73.2752 278.985 74.0746C279.331 74.8741 279.507 75.7438 279.5 76.6228C279.493 77.5017 279.304 78.3683 278.945 79.1616L287.645 89.3764L283.057 96.4737L270.963 81.8663C269.741 81.1423 268.813 79.9701 268.355 78.5717C267.897 77.1733 267.94 75.6459 268.477 74.279C269.013 72.9121 270.006 71.8005 271.267 71.155C272.528 70.5096 273.969 70.3749 275.317 70.7767Z" fill="#A0616A"/>
<path d="M356.759 95.8591C355.975 94.511 354.947 93.3396 353.733 92.4122C352.519 91.4848 351.144 90.8196 349.686 90.4548C348.228 90.09 346.717 90.0327 345.238 90.2862C343.759 90.5397 342.342 91.099 341.068 91.9321L312.458 110.646L281.597 82.9401L273.918 90.4905L308.012 137.208L352.323 112.811C351.289 113.38 358.009 98.0071 356.759 95.8591Z" fill="#CCCCCC"/>
<path d="M300.082 158.085C300.085 173.008 297.304 187.786 291.898 201.574C286.492 215.361 278.567 227.889 268.575 238.442C258.584 248.994 246.722 257.364 233.667 263.074C220.612 268.783 206.62 271.72 192.49 271.717C133.069 271.717 84.8972 220.841 84.8972 158.085C84.8869 145.878 86.7398 133.749 90.3844 122.164C97.5399 99.5403 111.248 79.8643 129.571 65.9188C147.894 51.9732 169.905 44.4638 192.49 44.4525C211.968 44.4453 231.082 50.0247 247.792 60.595C264.502 71.1652 278.181 86.3296 287.368 104.469C289.646 108.945 291.633 113.579 293.316 118.339C293.549 119.002 293.776 119.664 293.997 120.334V120.34C294.983 123.282 295.852 126.278 296.603 129.329C298.92 138.718 300.089 148.382 300.082 158.085Z" fill="#F1F1F1"/>
<path d="M180.718 81.4185C175.883 78.657 170.514 77.0981 165.022 76.8608C159.53 76.6235 154.059 77.7139 149.026 80.0491C144.595 82.0857 139.929 85.7393 138.451 92.3369C144.43 88.6106 152.169 94.4982 153.707 103.943L153.348 104.048C152.535 110.59 154.349 117.712 157.861 121.768C158.322 117.555 160.945 114.687 163.525 112.896C166.106 111.105 168.96 109.803 170.929 106.724C173.264 103.074 173.857 97.7389 174.784 92.8722C175.712 88.0054 177.471 82.7746 180.718 81.4185Z" fill="white"/>
<path d="M147.253 137.088C145.597 139.714 143.386 141.362 141.401 143.414C139.423 145.472 137.54 148.249 137.145 151.816C136.894 154.101 137.283 156.424 137.229 158.735C137.175 161.046 136.446 163.646 134.958 164.221C132.608 165.117 130.815 160.509 128.4 160.187C126.482 159.934 124.754 163.123 125.31 165.888C125.866 168.653 128.478 169.877 129.978 168.072C131.335 170.477 130.379 174.839 128.341 175.578C128.125 177.093 127.91 178.602 127.701 180.117C122.549 176.31 117.342 172.44 112.961 166.866C108.088 160.719 105.066 153.174 104.282 145.2C103.714 138.793 104.557 131.463 101.771 126.533C99.5417 122.587 95.7161 121.716 92.2732 121.962C91.6456 122.007 91.012 122.082 90.3844 122.164C92.4148 115.724 94.9936 109.491 98.0892 103.541C98.7897 103.224 99.4406 102.796 100.02 102.272C103.224 99.4001 104.646 93.5858 107.246 89.5645C107.414 89.3056 107.587 89.0531 107.767 88.807C110.426 85.1391 113.989 83.2516 117.432 81.4966C125.053 77.5889 132.895 73.6307 140.941 74.1736L138.652 74.4072C135.98 82.311 133.306 90.2147 130.63 98.1185C130.223 99.3305 129.813 100.545 129.399 101.761C127.88 106.256 126.314 111.041 126.547 116.072C126.685 119.052 127.665 122.234 129.53 123.256C131.269 124.203 133.17 123.042 134.85 121.893C135.561 121.413 136.267 120.933 136.978 120.447C139.53 118.711 142.357 116.931 145.053 118.092C147.522 119.153 149.345 122.695 149.692 126.514C150.01 130.227 149.152 133.946 147.253 137.088Z" fill="white"/>
<path d="M162.433 191.049C154.979 186.202 147.524 181.354 140.07 176.507L140.196 176.163C135.562 178.027 133.637 186.728 134.403 193.844C135.169 200.959 137.767 207.32 139.079 214.254C140.848 223.741 140.18 233.557 137.145 242.68C146.947 231.064 155.621 218.44 163.039 204.996C164.075 203.302 164.864 201.453 165.381 199.511C165.854 197.445 165.782 194.961 164.833 193.304C164.223 192.354 163.398 191.578 162.433 191.049Z" fill="white"/>
<path d="M133.013 102.861C132.222 104.74 131.917 107.247 132.635 109.191C133.369 111.178 134.92 112.075 136.348 112.823L140.466 114.979C141.837 115.696 143.314 116.421 144.711 115.831C146.395 115.119 147.564 112.329 147.261 109.739C146.94 106.983 145.295 105.088 143.774 103.473C141.645 101.214 139.516 98.9554 137.387 96.6963L136.188 98.2482C134.89 99.585 133.817 101.145 133.013 102.861Z" fill="white"/>
<path d="M278.001 132.322C279.855 132.783 281.708 133.243 283.56 133.704C283.238 140.314 280.135 146.431 275.975 148.647C274.242 149.569 272.311 149.91 270.877 151.633C269.58 153.199 268.922 155.635 268.318 157.965C267.26 162.03 266.202 166.096 265.144 170.161C264.009 174.543 262.55 179.41 259.597 180.988C257.063 182.345 254.164 180.685 252.215 177.901C250.267 175.117 249.077 171.373 247.924 167.725C247.995 171.702 246.244 175.603 243.763 176.986C241.277 178.368 238.252 177.118 236.59 174.031C235.395 171.815 234.899 168.892 233.727 166.645C232.556 164.398 230.099 163.11 228.82 165.218C227.977 166.62 228.085 168.766 227.666 170.546C227.015 173.311 225.042 175.048 223.088 175.199C221.139 175.351 219.238 174.164 217.606 172.554C214.241 169.221 211.761 163.931 210.798 158.053C210.374 155.433 210.254 152.58 210.99 150.124C211.725 147.669 213.5 145.775 215.263 146.242C216.423 143.653 214.134 140.219 212.071 140.522C210.003 140.825 208.383 143.167 206.686 144.967C204.994 146.766 202.627 148.072 200.924 146.286C200.936 147.946 199.656 149.045 198.551 148.906C197.451 148.773 196.47 147.839 195.46 147.176C191.557 144.607 186.602 146.311 183.828 151.172C185.562 143.382 188.102 134.443 193.428 132.612C195.604 131.861 197.977 132.48 200.033 131.179C203.673 128.875 204.408 120.169 201.264 116.577C201.665 119.974 201.587 123.938 199.89 126.261C198.192 128.585 194.629 127.069 194.845 123.635C194.354 126.003 191.916 126.362 190.792 124.544C189.662 122.726 189.758 119.753 190.559 117.581C191.36 115.409 192.723 113.85 194.044 112.354C196.883 109.141 199.764 105.89 203.052 103.869C206.345 101.849 210.147 101.168 213.446 103.175C215.186 104.236 216.716 106.003 218.491 106.938C220.266 107.878 222.52 107.758 223.697 105.561C225.018 103.112 224.397 99.4756 224.887 96.4139C225.766 91.0038 230.888 88.4723 233.727 92.0453C231.605 91.4709 229.412 94.1223 229.149 97.3356C228.88 100.549 230.416 103.794 232.472 104.766C235.927 106.382 239.31 102.316 241.922 98.554C244.648 94.6148 247.378 90.6776 250.111 86.7426C250.548 86.0726 251.038 85.4432 251.576 84.8613C252.432 83.98 253.573 83.4753 254.769 83.4495C255.964 83.4237 257.124 83.8788 258.013 84.7225C260.775 87.1024 262.072 91.9823 264.337 95.3407C267.625 100.221 272.544 101.407 277.123 102.354C280.536 103.055 283.951 103.76 287.368 104.469C289.646 108.945 291.633 113.579 293.316 118.339C287.529 120.933 282.192 125.788 278.001 132.322Z" fill="white"/>
<path d="M289.036 208.279C286.475 213.771 283.496 219.034 280.129 224.017C277.978 223.045 275.664 224.781 273.65 226.409C271.546 228.114 269.018 229.774 266.86 228.221C264.654 226.63 263.943 222.18 264.642 218.651C265.342 215.128 267.087 212.325 268.778 209.661C270.572 206.833 272.49 203.898 274.983 202.799C277.482 201.701 280.691 203.254 281.421 207.004L283.19 206.94C282.198 205.501 282.718 202.521 284.051 201.997C285.587 201.385 286.92 203.613 287.828 205.583C288.235 206.473 288.647 207.37 289.036 208.279Z" fill="white"/>
<path d="M221.273 181.614C217.47 181.866 214.458 176.922 212.456 172.057C210.454 167.193 208.628 161.63 205.196 159.155C203.236 157.74 201 157.546 198.874 156.86C196.747 156.175 194.521 154.756 193.504 151.867L191.092 150.838C187.906 152.73 184.678 154.657 181.933 157.735C178.854 161.19 176.936 165.618 176.475 170.337C176.014 175.437 177.716 181.123 180.895 183.039C183.408 184.553 186.333 183.598 188.878 184.984C192.058 186.716 193.945 191.745 194.66 196.711C195.374 201.677 195.193 206.838 195.705 211.861C196.216 216.883 197.625 222.109 200.541 224.683C204.19 227.903 209.544 225.227 211.181 219.364C211.984 216.488 211.957 213.243 212.557 210.258C213.615 205.001 216.469 201.1 218.733 196.788C220.997 192.475 222.779 186.618 221.273 181.614Z" fill="white"/>
<path d="M183.694 129.954C184.048 130.299 184.379 130.67 184.684 131.064C185 131.639 185.161 132.293 185.15 132.957C185.139 133.621 184.957 134.269 184.623 134.831C185.081 134.804 185.529 134.676 185.938 134.457C186.347 134.237 186.709 133.93 187 133.556C187.694 132.721 188.304 131.813 188.822 130.845C189.21 130.177 189.622 129.274 189.359 128.481C189.179 127.939 188.754 127.708 188.457 127.301C187.985 126.655 187.868 125.63 187.623 124.744C187.096 122.831 185.831 121.424 184.459 121.223L184.65 121.261C184.077 121.468 183.676 122.43 183.803 123.295C183.918 124.083 184.398 124.737 184.35 125.54C184.282 126.695 183.188 127.238 183.121 128.393C183.11 128.973 183.316 129.534 183.694 129.954Z" fill="white"/>
<path d="M177.178 110.321C177.184 110.319 177.189 110.319 177.195 110.317C177.312 110.205 177.421 110.083 177.52 109.952L177.178 110.321Z" fill="#E6E6E6"/>
<path d="M178.319 115.744C179.159 115.173 179.629 113.593 179.351 112.272C179.075 110.958 178.097 110.075 177.195 110.317C176.933 110.597 176.609 110.803 176.251 110.914C175.894 111.025 175.515 111.038 175.152 110.953C174.594 110.801 173.982 110.411 173.498 110.854C173.222 111.186 173.028 111.585 172.935 112.016C172.756 112.596 172.577 113.176 172.398 113.757C172.313 113.964 172.291 114.195 172.335 114.416C172.369 114.505 172.424 114.583 172.496 114.643C172.567 114.702 172.651 114.742 172.741 114.757C173.815 115.091 174.889 115.426 175.963 115.76C176.745 116.004 177.59 116.239 178.319 115.744Z" fill="white"/>
<path d="M259.396 190.614C258.9 189.756 258.404 188.897 257.907 188.039C257.419 187.045 256.753 186.161 255.944 185.436C255.767 185.279 255.561 185.161 255.34 185.089C255.118 185.017 254.885 184.992 254.654 185.017C254.424 185.041 254.2 185.114 253.996 185.231C253.793 185.348 253.613 185.507 253.469 185.698L253.529 186.189C254.661 187.688 255.858 189.354 256.145 191.579C256.258 192.456 256.219 193.364 256.318 194.245C256.417 195.127 256.699 196.04 257.238 196.42C258.02 196.972 258.938 196.158 259.494 195.166C259.991 194.351 260.214 193.383 260.127 192.418C260.003 191.77 259.755 191.156 259.396 190.614Z" fill="white"/>
<path d="M281.491 157.83C281.635 156.836 281.778 155.841 281.922 154.847C282.155 153.755 282.184 152.625 282.007 151.521C281.967 151.28 281.882 151.05 281.756 150.844C281.631 150.638 281.467 150.461 281.276 150.323C281.085 150.184 280.869 150.088 280.642 150.039C280.415 149.99 280.181 149.99 279.954 150.038L279.701 150.454C279.652 152.371 279.553 154.459 278.415 156.357C277.967 157.105 277.383 157.773 276.922 158.514C276.461 159.256 276.119 160.147 276.3 160.804C276.561 161.757 277.76 161.76 278.79 161.379C279.668 161.093 280.429 160.505 280.951 159.707C281.251 159.127 281.435 158.488 281.491 157.83Z" fill="#E6E6E6"/>
<path d="M267.184 191.731C267.427 190.995 267.077 190.149 267.003 189.335C266.967 188.283 267.231 187.244 267.761 186.352C268.287 185.511 268.685 184.588 268.942 183.617C269.05 183.175 269.03 182.708 268.885 182.278C268.721 181.888 268.323 181.71 268.095 182.019L268.583 182.351C267.923 182.227 267.246 182.261 266.6 182.452C266.232 182.601 265.903 182.842 265.642 183.153C265.38 183.464 265.194 183.838 265.098 184.242C265.017 184.871 264.885 185.492 264.704 186.098C264.412 186.73 263.848 186.941 263.493 187.496C263.252 187.988 263.13 188.537 263.138 189.091C263.147 189.646 263.286 190.189 263.543 190.673C263.989 191.464 264.696 192.051 265.529 192.322C266.126 192.548 266.911 192.56 267.184 191.731Z" fill="white"/>
<path d="M281.053 196.151C281.269 196.744 281.558 197.304 281.913 197.816C282.576 198.523 283.479 198.089 284.284 197.917C285.015 197.795 285.764 197.884 286.451 198.175C287.138 198.466 287.737 198.948 288.186 199.57C287.873 197.924 287.191 196.382 286.198 195.073C285.204 193.763 283.927 192.725 282.475 192.045C280.576 191.227 278.576 191.148 276.601 191.075L276.26 191.167C277.129 193.839 279.859 193.779 281.053 196.151Z" fill="white"/>
<path d="M222.313 201.616L222.318 201.628C222.352 201.56 222.385 201.493 222.418 201.426L222.313 201.616Z" fill="#E6E6E6"/>
<path d="M220.209 205.917C219.751 206.797 219.356 207.712 219.029 208.656C218.596 210.183 218.31 211.753 218.174 213.341C218.067 214.244 218.034 215.398 218.569 215.838C218.723 215.946 218.909 215.991 219.092 215.964C219.275 215.938 219.443 215.842 219.564 215.695C219.861 215.363 220.105 214.98 220.284 214.564C221.337 212.649 222.155 210.6 222.717 208.466C223.23 206.219 223.225 203.573 222.318 201.628C221.616 203.058 220.912 204.487 220.209 205.917Z" fill="white"/>
<path d="M199.912 91.3278C200.247 91.6728 200.669 91.907 201.128 92.0016C201.586 92.0961 202.061 92.0469 202.494 91.8599C203.39 91.4463 204.211 90.8731 204.923 90.1654C205.512 89.7049 206.012 89.1289 206.395 88.469C206.606 88.0745 206.742 87.64 206.793 87.1902C206.845 86.7404 206.812 86.2843 206.696 85.848C206.364 84.8205 205.52 84.4761 204.775 84.2429C203.583 83.8695 202.391 83.4962 201.199 83.1229L202.061 82.302C201.174 81.7991 200.193 82.7324 199.638 83.8879C199.282 84.6424 199.034 85.4483 198.902 86.2795C198.606 88.0932 198.896 90.2529 199.912 91.3278Z" fill="#E6E6E6"/>
<path d="M220.958 83.8658C221.294 84.257 221.759 84.4985 222.257 84.5413C222.756 84.5842 223.251 84.4251 223.642 84.0964C223.979 83.8291 224.259 83.4899 224.464 83.1009C224.668 82.7118 224.793 82.2816 224.83 81.8382C224.914 80.8479 224.45 79.7472 223.788 79.6617L223.94 78.7345C222.664 78.4912 221.094 78.4425 220.411 80.0785C220.18 80.7051 220.11 81.3848 220.206 82.0494C220.302 82.714 220.561 83.3404 220.958 83.8658Z" fill="#E6E6E6"/>
<path d="M218.147 34.5589C210.669 33.668 203.162 35.951 197.278 40.9058C191.393 45.8605 187.614 53.081 186.77 60.9789C185.014 77.4254 193.218 113.14 208.175 127.924C215.218 99.5985 239.897 82.7976 243.163 67.6971C246.652 51.5618 233.719 36.4141 218.147 34.5589Z" fill="#344E41"/>
<path d="M212.975 71.1213C218.086 71.1213 222.229 66.7455 222.229 61.3477C222.229 55.95 218.086 51.5742 212.975 51.5742C207.864 51.5742 203.721 55.95 203.721 61.3477C203.721 66.7455 207.864 71.1213 212.975 71.1213Z" fill="white"/>
<path d="M203.245 142.016C206.592 142.016 209.306 139.15 209.306 135.614C209.306 132.079 206.592 129.213 203.245 129.213C199.897 129.213 197.184 132.079 197.184 135.614C197.184 139.15 199.897 142.016 203.245 142.016Z" fill="#F1F1F1"/>
<path opacity="0.2" d="M220.632 54.3455C221.674 55.0065 222.582 55.8778 223.305 56.9095C224.027 57.9413 224.551 59.1133 224.845 60.3586C225.139 61.604 225.197 62.8982 225.018 64.1676C224.838 65.437 224.424 66.6565 223.798 67.7566C223.172 68.8568 222.347 69.8159 221.37 70.5793C220.393 71.3427 219.283 71.8954 218.104 72.2059C215.723 72.8329 213.203 72.4351 211.099 71.1001C213.244 71.604 215.489 71.2853 217.432 70.201C219.374 69.1167 220.888 67.3375 221.703 65.182C222.517 63.0265 222.578 60.6354 221.875 58.4365C221.173 56.2376 219.752 54.3746 217.868 53.1809C218.843 53.4091 219.776 53.8024 220.632 54.3455Z" fill="white"/>
<path opacity="0.2" d="M243.199 67.7287C239.933 82.8291 215.254 99.6301 208.211 127.955C206.805 126.552 205.498 125.04 204.303 123.433C212.217 96.8076 235.36 80.6294 238.515 66.0397C241.339 52.9815 233.407 40.5716 222.025 35.3293C235.802 38.9872 246.397 52.9422 243.199 67.7287Z" fill="white"/>
<path d="M131.427 72.6938C125.812 72.0247 120.174 73.7392 115.755 77.46C111.336 81.1808 108.498 86.6032 107.864 92.5343C106.545 104.885 112.706 131.705 123.939 142.808C129.228 121.536 147.761 108.919 150.213 97.5794C152.834 85.4623 143.122 74.0869 131.427 72.6938Z" fill="#344E41"/>
<path d="M127.543 100.151C131.381 100.151 134.493 96.8648 134.493 92.8113C134.493 88.7577 131.381 85.4717 127.543 85.4717C123.705 85.4717 120.594 88.7577 120.594 92.8113C120.594 96.8648 123.705 100.151 127.543 100.151Z" fill="white"/>
<path d="M120.236 153.39C122.75 153.39 124.788 151.238 124.788 148.583C124.788 145.928 122.75 143.776 120.236 143.776C117.722 143.776 115.685 145.928 115.685 148.583C115.685 151.238 117.722 153.39 120.236 153.39Z" fill="#F1F1F1"/>
<path opacity="0.2" d="M133.293 87.5528C134.076 88.0493 134.758 88.7036 135.3 89.4784C135.843 90.2531 136.236 91.1333 136.457 92.0685C136.678 93.0037 136.722 93.9757 136.587 94.9289C136.452 95.8821 136.141 96.798 135.671 97.6241C135.201 98.4503 134.581 99.1706 133.847 99.7439C133.114 100.317 132.281 100.732 131.395 100.965C130.51 101.199 129.589 101.245 128.687 101.103C127.784 100.96 126.917 100.631 126.135 100.135C127.745 100.513 129.431 100.274 130.89 99.4597C132.349 98.6454 133.486 97.3094 134.097 95.6907C134.709 94.072 134.755 92.2763 134.227 90.6251C133.7 88.9738 132.633 87.5747 131.218 86.6783C131.95 86.8496 132.651 87.145 133.293 87.5528Z" fill="white"/>
<path opacity="0.2" d="M150.24 97.6032C147.788 108.943 129.255 121.56 123.966 142.831C122.91 141.777 121.929 140.642 121.031 139.435C126.974 119.44 144.354 107.291 146.723 96.3348C148.844 86.5286 142.887 77.2091 134.339 73.2723C144.686 76.0193 152.642 86.499 150.24 97.6032Z" fill="white"/>
<path d="M349 338.574H341.37L337.74 307.491L349.002 307.491L349 338.574Z" fill="#A0616A"/>
<path d="M353.105 353.876H347.691L346.724 348.477L344.249 353.876H329.889C329.201 353.876 328.53 353.643 327.976 353.212C327.421 352.782 327.012 352.175 326.807 351.481C326.602 350.787 326.613 350.042 326.837 349.355C327.062 348.667 327.488 348.074 328.055 347.661L339.522 339.296V333.838L351.584 334.599L353.105 353.876Z" fill="#2F2E41"/>
<path d="M319.446 338.574H311.816L308.186 307.491L319.448 307.491L319.446 338.574Z" fill="#A0616A"/>
<path d="M323.551 353.876H318.137L317.17 348.477L314.695 353.876H300.335C299.647 353.876 298.976 353.643 298.422 353.212C297.867 352.782 297.458 352.175 297.253 351.481C297.048 350.787 297.059 350.042 297.283 349.355C297.508 348.667 297.934 348.074 298.501 347.661L309.968 339.296V333.838L322.03 334.599L323.551 353.876Z" fill="#2F2E41"/>
<path d="M290.458 256.507C291.918 258.82 307.803 322.411 307.803 322.411L321.888 324.107L320.217 308.107L317.661 279.794L313.704 260.895C313.704 260.895 327.678 227.307 328.561 224.631L329.189 222.711L333.555 264.557C334.074 266.051 334.3 267.641 334.22 269.23C334.088 271.844 336.571 311.169 336.571 311.169L337.764 325.272L349.832 327.042L354.728 302.641C358.816 294.714 356.473 266.547 354.801 263.925C353.129 261.303 353.793 243.044 353.793 243.044C355.928 242.251 368.659 196.401 362.291 196.672C362.7 194.227 363.022 192.045 363.022 192.045L351.968 182.63L324.305 175.035L317.326 171.496C317.326 171.496 304.861 195.839 304.985 197.05C305.157 198.583 304.824 200.132 304.043 201.437L291.458 245.92C291.458 245.92 288.983 254.171 290.458 256.507Z" fill="#2F2E41"/>
<path d="M359.957 97.3292L355.556 87.461L340.578 88.069L335.692 98.3353C335.692 98.3353 321.729 115.948 321.278 121.675C320.709 128.878 325.433 164.18 320.709 161.892C320.709 161.892 309.573 175.698 316.162 175.698C322.752 175.698 352.561 195.461 354.517 197.683C356.472 199.906 365.204 201.347 364.472 196.707C363.74 192.067 359.957 166.974 359.957 166.974L370.198 127.518C373.145 118.999 374.062 109.444 367.4 103.722L359.957 97.3292Z" fill="#CCCCCC"/>
<path d="M304.475 68.2845C302.472 67.4446 300.331 67.0296 298.176 67.0634C296.021 67.0971 293.893 67.5789 291.914 68.4812C289.935 69.3834 288.144 70.6886 286.642 72.322C285.141 73.9554 283.959 75.8852 283.163 78.0012C279.819 86.8999 279.264 108.151 285.489 118.801C293.491 104.12 309.682 98.6983 313.676 90.7929C317.943 82.3457 312.901 71.8168 304.475 68.2845Z" fill="#344E41"/>
<path d="M297.738 88.0623C300.694 88.0623 303.091 85.531 303.091 82.4086C303.091 79.2861 300.694 76.7549 297.738 76.7549C294.781 76.7549 292.384 79.2861 292.384 82.4086C292.384 85.531 294.781 88.0623 297.738 88.0623Z" fill="white"/>
<path d="M281.631 126.007C283.567 126.007 285.137 124.349 285.137 122.304C285.137 120.258 283.567 118.601 281.631 118.601C279.695 118.601 278.125 120.258 278.125 122.304C278.125 124.349 279.695 126.007 281.631 126.007Z" fill="#DAD7CD"/>
<path opacity="0.2" d="M303.018 79.7276C303.999 80.8105 304.532 82.2602 304.502 83.7583C304.471 85.2564 303.878 86.6803 302.854 87.7171C301.83 88.7539 300.457 89.3189 299.039 89.2878C297.62 89.2568 296.272 88.6323 295.289 87.5515C296.414 88.1767 297.712 88.3587 298.953 88.0649C300.193 87.7711 301.294 87.0208 302.058 85.9481C302.822 84.8755 303.2 83.5506 303.124 82.2106C303.048 80.8705 302.523 79.6029 301.643 78.6344C302.154 78.918 302.619 79.2872 303.018 79.7276Z" fill="white"/>
<path opacity="0.2" d="M313.691 90.8163C309.698 98.7217 293.507 104.143 285.504 118.825C284.921 117.816 284.409 116.762 283.972 115.673C292.217 102.08 307.461 96.7606 311.319 89.1225C314.773 82.2863 312.129 74.0874 306.529 69.3362C313.694 73.5871 317.602 83.0753 313.691 90.8163Z" fill="white"/>
<path d="M280.051 121.029C280.866 120.851 281.708 120.865 282.517 121.068C283.327 121.271 284.085 121.66 284.737 122.206C285.389 122.752 285.92 123.442 286.292 124.229C286.664 125.015 286.868 125.878 286.891 126.756L299.035 131.68L298.002 140.204L280.944 132.997C279.544 132.938 278.213 132.34 277.203 131.314C276.193 130.288 275.574 128.907 275.464 127.432C275.354 125.956 275.76 124.49 276.605 123.31C277.451 122.13 278.677 121.318 280.051 121.029Z" fill="#A0616A"/>
<path d="M364.908 103.462C363.629 102.638 362.209 102.088 360.729 101.845C359.249 101.601 357.737 101.669 356.282 102.043C354.826 102.418 353.455 103.093 352.247 104.028C351.039 104.964 350.018 106.142 349.242 107.496L331.81 137.898L292.397 128.031L288.806 138.442L339.278 163.692L364.841 120.692C368.668 115.011 370.542 107.095 364.908 103.462Z" fill="#CCCCCC"/>
<path d="M365.559 66.2035C365.56 69.1337 364.88 72.0194 363.579 74.6072C362.277 77.195 360.394 79.4059 358.095 81.0457C355.795 82.6855 353.15 83.7041 350.391 84.0121C347.632 84.3201 344.843 83.9081 342.27 82.8122C339.697 81.7164 337.418 79.9701 335.633 77.7268C333.848 75.4835 332.612 72.8118 332.033 69.9461C331.454 67.0804 331.55 64.1084 332.312 61.291C333.075 58.4735 334.48 55.8969 336.406 53.7871L336.487 53.7013C336.623 53.5508 336.758 53.4005 336.901 53.2572C336.901 53.2573 336.902 53.2571 336.903 53.2567C336.904 53.2564 336.905 53.2559 336.905 53.2552C336.906 53.2545 336.906 53.2537 336.907 53.2528C336.907 53.252 336.907 53.251 336.907 53.2501C337.084 53.0782 337.26 52.9064 337.443 52.7417C339.892 50.4739 342.908 48.9996 346.13 48.4955C349.352 47.9913 352.644 48.4786 355.61 49.899C358.577 51.3194 361.093 53.6126 362.858 56.5043C364.622 59.3959 365.56 62.7634 365.559 66.2035Z" fill="#2F2E41"/>
<path d="M344.434 85.3562C352.283 85.3562 358.647 78.6356 358.647 70.3453C358.647 62.055 352.283 55.3344 344.434 55.3344C336.584 55.3344 330.22 62.055 330.22 70.3453C330.22 78.6356 336.584 85.3562 344.434 85.3562Z" fill="#9E616A"/>
<path d="M359.526 74.6261L357.172 74.1868C355.856 73.9342 354.644 73.2633 353.699 72.2639C352.754 71.2645 352.121 69.9841 351.883 68.594L349.585 72.6613L349.485 72.6964C344.01 74.6162 338.314 74.042 332.074 70.9435C330.29 70.0497 328.56 69.042 326.892 67.9258L326.769 67.8446L326.759 67.6919C326.441 62.8087 327.478 58.7292 329.681 56.2048C330.527 55.255 331.553 54.5047 332.693 54.003C333.832 53.5014 335.059 53.2597 336.293 53.2938C336.381 53.2696 336.462 53.2225 336.528 53.1569C336.56 53.1323 336.591 53.108 336.623 53.0848V53.0596L336.786 52.9784C337.137 52.8044 337.494 52.6376 337.852 52.4852C340.664 51.3353 343.727 51.0469 346.687 51.653C349.648 52.2591 352.386 53.7351 354.588 55.9114C358.966 60.3256 360.975 67.7335 359.585 74.3457L359.526 74.6261Z" fill="#2F2E41"/>
<path d="M389.505 87.4155C384.668 84.7789 390.889 75.2098 389.639 69.615C388.389 64.0201 379.387 62.2206 378.814 56.5041C378.241 50.7876 376.892 44.8917 373.32 40.554C371.038 37.7822 367.675 35.7359 364.212 36.0831C363.041 36.2006 361.907 36.5833 360.888 37.2053C359.869 37.8272 358.989 38.6738 358.308 39.6873C357.627 40.7008 357.161 41.8575 356.941 43.0784C356.721 44.2994 356.753 45.5561 357.035 46.7628C356.049 45.2875 353.498 45.6073 352.866 47.2854C352.305 48.7772 353.545 50.5841 355.005 50.7161C356.915 53.2072 359.102 55.8508 362.094 56.3534C362.571 56.469 363.066 56.4687 363.543 56.3525C364.019 56.2363 364.465 56.0073 364.845 55.6827C365.549 54.9687 365.604 53.5413 364.769 53.0078C368.529 54.5853 370.734 58.8792 371.292 63.1116C371.85 67.344 371.078 71.6263 370.569 75.8656C370.06 80.1049 369.841 84.5644 371.415 88.5011C373.275 93.1524 377.556 96.4861 382.228 97.5552C386.9 98.6242 391.876 97.5794 396.105 95.2253C400.334 92.871 403.861 89.2772 406.742 85.248C401.779 88.9697 394.913 90.3639 389.505 87.4155Z" fill="#2F2E41"/>
<path d="M358.922 74.2089C358.922 74.2089 354.711 57.6109 336.663 53.78C336.643 53.7729 336.575 53.7442 336.487 53.7013C336.433 53.6655 336.365 53.6297 336.297 53.5939C336.501 53.4721 336.697 53.3648 336.901 53.2573L336.903 53.2568L336.905 53.2552L336.907 53.2529L336.907 53.2501C337.084 53.0783 337.26 52.9064 337.443 52.7417L337.958 52.7632C337.958 52.7632 356.067 49.7344 358.922 74.2089Z" fill="#FD6584"/>
<path opacity="0.2" d="M349.495 127.468L339.302 139.94L322.459 134.687L340.82 143.624L349.495 127.468Z" fill="black"/>
<path d="M410.678 354.816L253.957 355C253.778 354.999 253.606 354.924 253.48 354.79C253.353 354.656 253.282 354.474 253.282 354.285C253.282 354.096 253.353 353.915 253.48 353.781C253.606 353.647 253.778 353.571 253.957 353.571L410.678 353.386C410.858 353.386 411.03 353.461 411.157 353.595C411.284 353.729 411.355 353.911 411.355 354.101C411.355 354.29 411.284 354.472 411.157 354.606C411.03 354.74 410.858 354.816 410.678 354.816Z" fill="#CACACA"/>
<path d="M417.558 243.745C410.219 243.745 402.176 243.452 393.428 242.867C348.179 239.832 289.569 229.281 228.394 213.159C167.218 197.036 110.786 177.267 69.4924 157.495C49.3772 147.863 33.9389 138.745 23.6069 130.395C12.6679 121.555 7.88301 113.85 9.38462 107.494C12.3105 95.1112 38.2174 92.4022 59.4354 92.3101L59.4426 94.1109C30.3046 94.2372 13.1147 99.145 11.0392 107.93C8.39531 119.119 29.9575 136.586 70.1965 155.855C111.399 175.584 167.728 195.315 228.807 211.412C289.885 227.509 348.387 238.041 393.536 241.069C437.627 244.027 464.433 239.306 467.077 228.117C469.271 218.827 454.801 205.142 426.332 189.582L427.116 187.983C447.802 199.289 471.814 215.505 468.731 228.553C467.229 234.909 459.578 239.337 445.989 241.712C438.242 243.066 428.728 243.745 417.558 243.745Z" fill="#F1F1F1"/>
</g>
<defs>
<clipPath id="clip0_3_215">
<rect width="469" height="355" fill="white"/>
</clipPath>
</defs>
</svg>
