<svg width="30" height="30" viewBox="0 0 30 30" fill="none" xmlns="http://www.w3.org/2000/svg">
<path d="M22.5 8.95C22.425 8.9375 22.3375 8.9375 22.2625 8.95C20.5375 8.8875 19.1625 7.475 19.1625 5.725C19.1625 3.9375 20.6 2.5 22.3875 2.5C24.175 2.5 25.6125 3.95 25.6125 5.725C25.6 7.475 24.225 8.8875 22.5 8.95Z" stroke="#344E41" stroke-width="1.5" stroke-linecap="round" stroke-linejoin="round"/>
<path d="M21.2124 18.05C22.9249 18.3375 24.8124 18.0375 26.1374 17.15C27.8999 15.975 27.8999 14.05 26.1374 12.875C24.7999 11.9875 22.8874 11.6875 21.1749 11.9875" stroke="#344E41" stroke-width="1.5" stroke-linecap="round" stroke-linejoin="round"/>
<path d="M7.46248 8.95C7.53748 8.9375 7.62498 8.9375 7.69998 8.95C9.42498 8.8875 10.8 7.475 10.8 5.725C10.8 3.9375 9.36248 2.5 7.57498 2.5C5.78748 2.5 4.34998 3.95 4.34998 5.725C4.36248 7.475 5.73748 8.8875 7.46248 8.95Z" stroke="#344E41" stroke-width="1.5" stroke-linecap="round" stroke-linejoin="round"/>
<path d="M8.74993 18.05C7.03743 18.3375 5.14993 18.0375 3.82493 17.15C2.06243 15.975 2.06243 14.05 3.82493 12.875C5.16243 11.9875 7.07493 11.6875 8.78743 11.9875" stroke="#344E41" stroke-width="1.5" stroke-linecap="round" stroke-linejoin="round"/>
<path d="M15 18.2875C14.925 18.275 14.8375 18.275 14.7625 18.2875C13.0375 18.225 11.6624 16.8125 11.6624 15.0625C11.6624 13.275 13.1 11.8375 14.8875 11.8375C16.675 11.8375 18.1125 13.2875 18.1125 15.0625C18.1 16.8125 16.725 18.2375 15 18.2875Z" stroke="#344E41" stroke-width="1.5" stroke-linecap="round" stroke-linejoin="round"/>
<path d="M11.3625 22.225C9.59996 23.4 9.59996 25.325 11.3625 26.5C13.3625 27.8375 16.6375 27.8375 18.6375 26.5C20.4 25.325 20.4 23.4 18.6375 22.225C16.65 20.9 13.3625 20.9 11.3625 22.225Z" stroke="#344E41" stroke-width="1.5" stroke-linecap="round" stroke-linejoin="round"/>
</svg>
